<svg version="1.1" x="0px" y="0px" viewBox="0 0 512 512">
    <g>
        <g>
            <g>
                <path
                    d="M492,352c11.046,0,20-8.954,20-20V120c0-44.112-35.888-80-80-80h-26V20c0-11.046-8.954-20-20-20
    c-11.046,0-20,8.954-20,20v20h-91V20c0-11.046-8.954-20-20-20s-20,8.954-20,20v20h-90V20c0-11.046-8.954-20-20-20
    s-20,8.954-20,20v20H80C35.888,40,0,75.888,0,120v312c0,44.112,35.888,80,80,80h352c44.112,0,80-35.888,80-80
    c0-11.046-8.954-20-20-20c-11.046,0-20,8.954-20,20c0,22.056-17.944,40-40,40H80c-22.056,0-40-17.944-40-40V120
    c0-22.056,17.944-40,40-40h25v20c0,11.046,8.954,20,20,20s20-8.954,20-20V80h90v20c0,11.046,8.954,20,20,20
    c11.046,0,20-8.954,20-20V80h91v20c0,11.046,8.954,20,20,20c11.046,0,20-8.954,20-20V80h26c22.056,0,40,17.944,40,40v212
    C472,343.046,480.954,352,492,352z"></path>
                <path
                    d="M314.5,192c-23.583,0-43.533,8.339-57.5,23.765C243.033,200.339,223.083,192,199.5,192
    c-44.906,0-77.5,34.173-77.5,81.256c0,49.211,41.248,80.083,77.639,107.32c16.642,12.456,32.36,24.22,41.759,35.938
    C245.194,421.246,250.934,424,257,424c6.066,0,11.806-2.754,15.601-7.486c9.4-11.718,25.117-23.483,41.759-35.938
    c36.392-27.237,77.64-58.109,77.64-107.32C392,226.173,359.406,192,314.5,192z M290.393,348.552
    c-11.899,8.906-23.379,17.498-33.393,26.599c-10.014-9.101-21.495-17.694-33.393-26.599C193.319,325.883,162,302.443,162,273.256
    C162,248.58,177.07,232,199.5,232c14.483,0,24.659,4.867,31.107,14.877c5.203,8.079,6.345,16.788,6.46,17.776
    c0.654,10.454,9.26,18.441,19.746,18.546c10.515,0.1,19.312-8.158,20.127-18.648c0.007-0.081,0.932-8.542,5.865-16.728
    C289.221,237.176,299.589,232,314.5,232c22.43,0,37.5,16.58,37.5,41.256C352,302.442,320.681,325.883,290.393,348.552z"></path>
            </g>
        </g>
    </g>
    <g></g>
    <g></g>
    <g></g>
    <g></g>
    <g></g>
    <g></g>
    <g></g>
    <g></g>
    <g></g>
    <g></g>
    <g></g>
    <g></g>
    <g></g>
    <g></g>
    <g></g>
</svg>