<svg viewBox="0 0 32 32">
    <path d="m9.55 10.965a1 1 0 0 0 1.415-1.414l-1.414-1.415a1 1 0 1 0 -1.415 1.414z"></path>
    <path d="m6.793 14.793h2a1 1 0 0 0 0-2h-2a1 1 0 1 0 0 2z"></path>
    <path d="m13.793 9.793a1 1 0 0 0 1-1v-2a1 1 0 1 0 -2 0v2a1 1 0 0 0 1 1z"></path>
    <path
        d="m31 13.313a3.973 3.973 0 0 0 -1.172-2.828l-.391-.39a3.895 3.895 0 0 0 -1.022-3.852l-.392-.392a3.9 3.9 0 0 0 -1.023-3.851l-.707-.707a1 1 0 0 0 -1.414 0l-7.779 7.778a3.976 3.976 0 0 0 -.45 5.1 5.687 5.687 0 0 0 -.572 1.9 5.67 5.67 0 0 0 -1.906.574 4.11 4.11 0 0 0 -5.1.449l-7.779 7.785a1 1 0 0 0 0 1.414l.707.707a3.893 3.893 0 0 0 3.852 1.023l.391.391a3.893 3.893 0 0 0 3.857 1.023l.39.391a4 4 0 0 0 5.657 0l2.136-2.136c.33.018.661.029.991.029a28.324 28.324 0 0 0 6.808-.943 1 1 0 0 0 .7-.7 27.2 27.2 0 0 0 .916-7.8l2.134-2.134a3.974 3.974 0 0 0 1.168-2.831zm-16.272 15.1a2.048 2.048 0 0 1 -2.829 0l.707-.707a1 1 0 1 0 -1.414-1.414l-.707.708a2.047 2.047 0 0 1 -2.828 0l2.121-2.121a1 1 0 1 0 -1.414-1.414l-2.121 2.121a2.048 2.048 0 0 1 -2.829 0l7.071-7.071a2.041 2.041 0 0 1 1.962-.486 5.614 5.614 0 0 0 .285 7.666 6.606 6.606 0 0 0 3.083 1.632zm10.262-3.422c-2.722.649-8.639 1.494-10.844-.71a3.666 3.666 0 0 1 0-5.185 3.588 3.588 0 0 1 2.571-1.055c.088 0 .178 0 .268.01a1.019 1.019 0 0 0 .774-.291 1 1 0 0 0 .291-.774 3.617 3.617 0 0 1 1.046-2.84 3.673 3.673 0 0 1 5.186 0c2.199 2.2 1.356 8.12.708 10.845zm3.424-10.263-1.093 1.093a6.625 6.625 0 0 0 -1.621-3.089 5.658 5.658 0 0 0 -7.678-.274 1.944 1.944 0 0 1 .5-1.973l7.071-7.071a2 2 0 0 1 0 2.828l-2.129 2.122a1 1 0 1 0 1.414 1.414l2.122-2.121a2 2 0 0 1 0 2.828l-.707.707a1 1 0 1 0 1.414 1.414l.707-.707a2 2 0 0 1 0 2.829z"></path>
</svg>