<svg viewBox="0 0 512 512">
    <g>
        <path
            d="m467 151h-81.729l-17.562-35.125c-7.673-15.343-23.096-24.875-40.25-24.875h-142.918c-17.154 0-32.577 9.531-40.25 24.875l-17.561 35.125h-36.73v-15c0-8.284-6.716-15-15-15s-15 6.716-15 15v15h-15c-24.813 0-45 20.187-45 45v271c0 24.813 20.187 45 45 45h422c24.813 0 45-20.187 45-45v-271c0-24.813-20.187-45-45-45zm15 316c0 8.271-6.729 15-15 15h-422c-8.271 0-15-6.729-15-15v-271c0-8.271 6.729-15 15-15h91c5.682 0 10.875-3.21 13.417-8.292l21.708-43.416c2.558-5.115 7.699-8.292 13.417-8.292h142.918c5.718 0 10.859 3.177 13.417 8.292l21.708 43.417c2.54 5.081 7.733 8.291 13.415 8.291h91c8.271 0 15 6.729 15 15z"></path>
        <circle cx="75" cy="226" r="15"></circle>
        <path
            d="m256 181c-74.439 0-135 60.561-135 135 0 74.991 60.561 136 135 136s135-61.009 135-136c0-74.439-60.56-135-135-135zm0 241c-57.897 0-105-47.552-105-106 0-57.897 47.103-105 105-105s105 47.103 105 105c0 58.449-47.103 106-105 106z"></path>
        <path
            d="m286.01 271.009c-12.917 0-22.8 4.866-30 11.274-7.2-6.407-17.083-11.274-30-11.274-25.233 0-45 18.968-45 43.182 0 25.505 21.218 41.003 50.584 62.452 4.927 3.599 10.022 7.321 15.416 11.366 2.667 2 5.833 3 9 3s6.333-1 9-3c5.394-4.045 10.489-7.767 15.416-11.366 29.366-21.449 50.584-36.947 50.584-62.452 0-24.214-19.766-43.182-45-43.182zm-23.278 81.409c-2.202 1.608-4.437 3.24-6.721 4.918-2.285-1.678-4.52-3.31-6.721-4.918-22.223-16.231-38.279-27.959-38.279-38.227 0-6.551 5.152-13.182 15-13.182 10.901 0 15.137 10.494 15.737 12.15 1.868 6.29 7.555 10.451 14.124 10.538 6.578.061 12.416-4.334 14.426-10.616.039-.121 3.999-12.072 15.714-12.072 9.848 0 15 6.631 15 13.182-.002 10.267-16.058 21.995-38.28 38.227z"></path>
        <path
            d="m271 46v-31c0-8.284-6.716-15-15-15s-15 6.716-15 15v31c0 8.284 6.716 15 15 15s15-6.716 15-15z"></path>
        <path
            d="m176.431 56.779c5.953-5.761 6.109-15.257.348-21.21l-30-31c-5.761-5.953-15.257-6.109-21.21-.348s-6.109 15.257-.348 21.21l30 31c5.763 5.955 15.259 6.108 21.21.348z"></path>
        <path
            d="m356.779 56.432 30-31c5.761-5.953 5.605-15.449-.348-21.21-5.952-5.761-15.449-5.605-21.21.348l-30 31c-5.761 5.953-5.605 15.449.348 21.21 5.965 5.773 15.462 5.591 21.21-.348z"></path>
        <path
            d="m437 211h-31c-8.284 0-15 6.716-15 15s6.716 15 15 15h31c8.284 0 15-6.716 15-15s-6.716-15-15-15z"></path>
    </g>
</svg>