<svg viewBox="0 0 512 512"
>
    <g>
        <path
            d="m191.048 203.939c29.102 20.787 57.834 33.196 59.043 33.714 3.773 1.617 8.044 1.617 11.817 0 41.052-17.083 124.493-69.806 121.556-126.255.525-65.013-76.353-102.842-127.464-62.911-87.417-61.885-199.129 65.778-64.952 155.452zm16.752-141.806c14.119 0 27.588 6.086 36.954 16.697 5.649 6.702 16.843 6.702 22.492 0 29.541-33.873 86.428-12.403 86.22 32.571 0 41.699-65.576 81.068-97.466 96.017-31.9-14.954-97.467-54.321-97.467-96.018 0-27.166 22.101-49.267 49.267-49.267z"></path>
        <path
            d="m56.492 28.42 32.133 16.067c7.4 3.699 16.414.714 20.125-6.708 3.705-7.41.702-16.42-6.708-20.125l-32.133-16.067c-7.411-3.704-16.42-.702-20.125 6.708-3.705 7.409-.702 16.42 6.708 20.125z"></path>
        <path
            d="m423.375 44.487 32.133-16.067c7.41-3.705 10.413-12.715 6.708-20.125s-12.714-10.412-20.125-6.708l-32.133 16.067c-7.41 3.705-10.413 12.715-6.708 20.125 3.711 7.421 12.726 10.406 20.125 6.708z"></path>
        <path
            d="m88.625 194.38-32.133 16.067c-7.41 3.705-10.413 12.715-6.708 20.125s12.714 10.412 20.125 6.708l32.133-16.067c7.41-3.705 10.413-12.715 6.708-20.125-3.711-7.422-12.725-10.407-20.125-6.708z"></path>
        <path
            d="m47.133 134.433h32.133c19.881-.738 19.866-29.269 0-30h-32.133c-19.88.738-19.865 29.269 0 30z"></path>
        <path
            d="m409.958 221.213 32.133 16.067c7.411 3.704 16.42.702 20.125-6.708s.702-16.42-6.708-20.125l-32.133-16.067c-7.399-3.699-16.414-.714-20.125 6.708-3.705 7.409-.702 16.42 6.708 20.125z"></path>
        <path
            d="m417.733 119.433c0 8.284 6.716 15 15 15h32.133c19.881-.738 19.866-29.269 0-30h-32.133c-8.284 0-15 6.716-15 15z"></path>
        <path
            d="m507.606 341.794-64.266-64.267c-2.812-2.813-6.628-4.394-10.606-4.394h-353.467c-3.979 0-7.793 1.581-10.606 4.394l-64.267 64.267c-4.29 4.29-5.573 10.742-3.252 16.347 2.322 5.605 7.792 9.26 13.858 9.26h49.266v129.599c0 8.284 6.716 15 15 15h353.467c8.284 0 15-6.716 15-15v-129.6h49.267c6.067 0 11.536-3.655 13.858-9.26 2.321-5.604 1.038-12.056-3.252-16.346zm-89.873 140.206h-323.466v-114.6h323.467v114.6zm-366.52-144.6 34.267-34.267h341.041l34.267 34.267z"></path>
        <path
            d="m336.333 447.733h32.134c19.881-.738 19.866-29.269 0-30h-32.134c-19.881.738-19.866 29.27 0 30z"></path>
    </g>
</svg>