<svg
    viewBox="0 0 512.238 512.238">
    <path
        d="m368.591 48.319c-47.025 0-86.044 24.885-112.467 64.414-76.278-120.422-255.754-58.088-256 79.122-5.252 137.595 157.239 240.661 251.257 271.295 3.079 1.026 6.408 1.026 9.486 0 94.634-30.982 256.349-133.676 251.254-271.299.003-79.143-64.386-143.532-143.53-143.532zm-224.934 30c62.128 0 92.689 56.66 98.54 70.904 4.957 12.493 22.9 12.488 27.854 0 5.851-14.243 36.412-70.904 98.54-70.904 58.207 0 106.315 44.033 112.785 100.536-27.157 7.016-43.002 30.131-64.585 30.131-25.448 0-42.883-32.133-80.334-32.133-37.436 0-54.886 32.133-80.333 32.133s-42.897-32.133-80.333-32.133c-37.451 0-54.886 32.133-80.334 32.133-21.583 0-37.427-23.115-64.585-30.131 6.47-56.503 54.578-100.536 112.785-100.536zm224.366 296.053c-48.245 33.771-96.826 53.057-111.898 58.62-15.072-5.563-63.653-24.848-111.898-58.62-11.594-8.116-22.342-16.503-32.254-25.121 26.702-7.245 42.434-29.932 63.819-29.932 25.443 0 42.903 32.133 80.333 32.133s54.89-32.133 80.333-32.133c21.385 0 37.117 22.687 63.819 29.932-9.913 8.618-20.66 17.005-32.254 25.121zm63.608-56.413c-4.773 2.137-9.639 3.494-14.84 3.494-25.448 0-42.883-32.133-80.334-32.133-37.436 0-54.886 32.133-80.333 32.133s-42.897-32.133-80.333-32.133c-37.451 0-54.886 32.133-80.334 32.133-5.201 0-10.067-1.357-14.84-3.494-19.685-22.873-44.139-58.892-49.443-107.064 18.116 8.631 35.147 28.091 64.283 28.091 37.451 0 54.886-32.133 80.334-32.133 25.443 0 42.903 32.133 80.333 32.133s54.89-32.133 80.333-32.133c25.448 0 42.883 32.133 80.334 32.133 29.136 0 46.167-19.46 64.283-28.091-5.303 48.172-29.758 84.191-49.443 107.064z"></path>
</svg>