<svg viewBox="0 0 512.001 512" xmlns="http://www.w3.org/2000/svg">
    <path
        d="m246.175781 324.335938c2.820313 2.441406 6.320313 3.664062 9.824219 3.664062s7.003906-1.222656 9.824219-3.664062c40.074219-34.730469 70.945312-54.96875 70.945312-89.636719 0-28.429688-21.035156-50.699219-47.886719-50.699219-14.34375 0-25.152343 6.1875-32.882812 14.207031-7.734375-8.019531-18.539062-14.207031-32.886719-14.207031-26.851562 0-47.882812 22.269531-47.882812 50.699219 0 34.597656 30.910156 54.9375 70.945312 89.636719zm-23.0625-110.335938c12.867188 0 18.042969 16.230469 18.441407 17.550781 1.726562 6.542969 7.589843 11.007813 14.355468 11.0625h.117188c6.738281 0 12.625-4.605469 14.425781-11.109375.050781-.175781 5.21875-17.503906 18.429687-17.503906 11.742188 0 17.886719 10.414062 17.886719 20.699219 0 17.042969-19.527343 32.03125-50.769531 58.546875-31.804688-26.988282-50.769531-41.609375-50.769531-58.546875 0-10.285157 6.144531-20.699219 17.882812-20.699219zm0 0"></path>
    <path
        d="m512 256c0-.035156-.007812-.070312-.007812-.105469-.023438-4.476562-2.066407-8.546875-5.175782-11.238281l-85.816406-74.261719v-65.394531c0-8.285156-6.714844-15-15-15h-75.792969l-64.328125-56.289062c-5.65625-4.949219-14.101562-4.949219-19.757812 0l-64.328125 56.289062h-76.792969c-8.285156 0-15 6.714844-15 15v65.445312c-15.480469 13.542969-83.949219 73.445313-85.003906 74.390626-3.105469 2.78125-4.996094 6.824218-4.996094 11.164062v241c0 8.375 6.839844 14.992188 15.015625 14.992188h.074219 481.820312.078125c8.269531 0 15.011719-6.714844 15.011719-14.992188zm-482 25.789062c1.730469.992188 165.636719 94.199219 165.753906 94.265626l-165.753906 95.054687zm199.996094 109.210938h52.007812l158.6875 91h-369.382812zm86.25-14.945312 165.753906-94.265626v189.320313zm154.890625-122.601563-50.136719 28.515625v-71.898438zm-215.136719-188.519531 28.648438 25.066406h-57.296876zm135 55.066406v179.027344l-108.96875 61.972656h-52.0625l-109.96875-62.539062v-178.460938zm-301 161.398438-49.242188-28.003907 49.242188-43.085937zm0 0"></path>
    <path
        d="m15 120h30c8.285156 0 15-6.714844 15-15s-6.714844-15-15-15h-30c-8.285156 0-15 6.714844-15 15s6.714844 15 15 15zm0 0"></path>
    <path
        d="m105 60c8.285156 0 15-6.714844 15-15v-30c0-8.285156-6.714844-15-15-15s-15 6.714844-15 15v30c0 8.285156 6.714844 15 15 15zm0 0"></path>
    <path
        d="m34.394531 55.609375c5.859375 5.855469 15.355469 5.855469 21.210938 0 5.859375-5.859375 5.859375-15.355469 0-21.214844l-30-30c-5.855469-5.855469-15.351563-5.855469-21.210938 0-5.859375 5.859375-5.859375 15.355469 0 21.214844zm0 0"></path>
</svg>