<svg version="1.1" x="0px" y="0px" viewBox="0 0 512 512">
    <g>
        <g>
            <g>
                <path d="m466 22c-24.813 0-45 20.187-45 45v110.49c-17.647-13.604-43.069-12.331-59.245 3.846l-87.066 87.071c-.003.003-.007.006-.01.009-7.385 7.385-13.638 15.6-18.68 24.431-5.042-8.831-11.295-17.046-18.68-24.431-.003-.003-.007-.006-.01-.009l-87.066-87.071c-16.176-16.177-41.597-17.45-59.245-3.846v-110.49c0-24.813-20.187-45-45-45s-44.998 20.187-44.998 45v163.795c0 26.85 9.466 52.995 26.654 73.621l73.346 88.015v29.569h-5c-8.284 0-15 6.716-15 15v60c0 8.284 6.716 15 15 15h320c8.284 0 15-6.716 15-15v-60c0-8.284-6.716-15-15-15h-5v-29.569l73.346-88.015c17.188-20.626 26.654-46.771 26.654-73.621v-163.795c0-24.813-20.187-45-45-45zm-225 460h-130v-30h130zm0-60h-110v-35c0-3.509-1.23-6.907-3.477-9.603l-76.822-92.187c-12.705-15.244-19.701-34.569-19.701-54.415v-163.795c0-8.271 6.729-15 15-15s15 6.729 15 15v121.3c0 20.033 7.802 38.868 21.968 53.033l63.848 63.847c5.857 5.857 15.355 5.857 21.213 0s5.858-15.355 0-21.213l-60.224-60.224c-5.841-5.859-5.837-15.343.016-21.195 5.857-5.857 15.354-5.856 21.211.001l87.066 87.07c.003.003.006.007.009.01 16.052 16.055 24.893 37.399 24.893 60.102zm160 60h-130v-30h130zm80-251.205c0 19.846-6.996 39.171-19.701 54.416l-76.822 92.187c-2.247 2.695-3.477 6.093-3.477 9.602v35h-110v-72.269c0-22.703 8.841-44.048 24.895-60.103.003-.003.006-.007.009-.01l87.066-87.07c5.857-5.857 15.353-5.858 21.211-.001 5.852 5.852 5.857 15.336.016 21.195l-60.224 60.224c-5.858 5.857-5.858 15.355 0 21.213 5.857 5.857 15.355 5.857 21.213 0l63.848-63.847c14.166-14.165 21.968-33 21.968-53.033v-121.299c0-8.271 6.729-15 15-15s15 6.729 15 15v163.795z"></path>
                <path d="m245.393 195.577c5.858 5.858 15.355 5.858 21.213 0l85.252-85.252c25.205-25.205 25.205-66.216 0-91.421-25.205-25.205-66.216-25.205-91.421 0l-4.438 4.438-4.438-4.438c-25.204-25.204-66.215-25.204-91.42 0-25.205 25.205-25.205 66.216-.001 91.42zm-64.038-155.46c13.508-13.508 35.486-13.508 48.993 0l15.045 15.044c5.858 5.858 15.355 5.858 21.213 0l15.045-15.044c13.508-13.508 35.487-13.508 48.995 0s13.508 35.486 0 48.995l-74.646 74.645-74.646-74.646c-13.508-13.507-13.508-35.486.001-48.994z"></path>
            </g>
        </g>
    </g>
    <g></g>
    <g></g>
    <g></g>
    <g></g>
    <g></g>
    <g></g>
    <g></g>
    <g></g>
    <g></g>
    <g></g>
    <g></g>
    <g></g>
    <g></g>
    <g></g>
    <g></g>
</svg>