<svg
    viewBox="0 0 512.001 512.001">
    <g>
        <path
            d="m497.044.002c-.014 0-.029-.002-.044-.002h-60c-8.284 0-15 6.716-15 15s6.716 15 15 15h23.787l-36.643 36.643c-8.142-2.769-16.804-4.209-25.768-4.209-34.166 0-55.416 12.291-67.5 23.104-12.084-10.814-33.335-23.104-67.5-23.104-47.942 0-82.5 40.647-82.5 90.151 0 .02.001.04.001.06-2.431-.134-4.925-.212-7.501-.212-47.942 0-82.5 40.647-82.5 90.151 0 41.481 25.818 72.662 55.827 101.499l-16.915 16.917h-53.788c-3.979 0-7.794 1.581-10.606 4.394l-61 61c-4.29 4.29-5.573 10.742-3.252 16.347 2.322 5.604 7.791 9.259 13.858 9.259h45v45c0 6.067 3.654 11.537 9.26 13.858 5.605 2.322 12.057 1.038 16.347-3.252l61-61c2.813-2.813 4.393-6.628 4.393-10.606v-53.787l17.809-17.809c8.587 7.629 49.87 43.368 62.102 54.24 5.682 5.052 14.247 5.052 19.932 0 53.117-47.216 98.09-81.644 121.413-117.477 26.595-23.023 58.044-49.676 77.924-73.691 20.942-25.299 30.696-49.096 30.696-74.891 0-28.885-11.69-54.062-29.949-70.3l31.073-31.072v23.787c0 8.284 6.716 15 15 15s15-6.716 15-15v-59.995c.004-8.175-6.642-14.977-14.956-15.003zm-376.044 429.785-31 31v-23.787c0-8.284-6.716-15-15-15h-23.787l31-31h38.787zm119.876-42.368c-8.71-7.65-42.871-37.224-50.824-44.258l76.554-76.554c5.858-5.858 5.858-15.355 0-21.213-5.857-5.858-15.355-5.858-21.213 0l-77.512 77.512c-29.989-28.662-47.006-52.119-47.006-80.32 0-34.292 22.57-60.151 52.5-60.151 39.646 0 53.081 21.128 54.248 23.103 2.474 5.062 7.471 8.093 13.112 8.188.08.001.158.002.237.002 5.585 0 10.613-3.324 13.203-8.29.119-.23 13.142-23.002 54.199-23.002 29.93 0 52.5 25.859 52.5 60.151 0 14.014-4.202 26.856-12.109 39.747-26.059 35.512-25.808 32.984-107.889 105.085zm149.972-142.435c1.176-49.915-33.217-92.55-82.472-92.55-34.166 0-55.416 12.291-67.5 23.104-6.794-6.08-16.486-12.626-29.742-17.193-.157-1.895-.258-3.805-.258-5.76 0-34.292 22.57-60.151 52.5-60.151 39.643 0 53.079 21.125 54.248 23.103 2.473 5.062 7.47 8.093 13.112 8.188.08.001.158.002.237.002 5.585 0 10.613-3.324 13.203-8.29.119-.23 13.142-23.002 54.199-23.002 29.145 0 52.5 25.023 52.5 60.151.001 32.057-21.987 57.985-60.027 92.398z"></path>
    </g>
</svg>