<svg viewBox="0 0 512 512" xmlns="http://www.w3.org/2000/svg">
    <path
        d="m344.984 152c27.57 0 50 22.43 50 50 0 11.046-8.954 20-20 20s-20-8.954-20-20c0-5.514-4.486-10-10-10s-10 4.486-10 10c0 11.046-8.954 20-20 20s-20-8.954-20-20c0-27.57 22.43-50 50-50zm-127 50c0-27.57-22.43-50-50-50s-50 22.43-50 50c0 11.046 8.954 20 20 20s20-8.954 20-20c0-5.514 4.486-10 10-10s10 4.486 10 10c0 11.046 8.954 20 20 20s20-8.954 20-20zm134-150.096c0-29.59 21.495-51.904 50-51.904 12.631 0 22.61 3.346 30.218 8 7.615-4.638 17.496-8 29.782-8 28.505 0 50 22.314 50 51.904 0 30.439-24.594 48.813-44.354 63.578-8.183 6.113-15.911 11.888-20.055 17.044-3.796 4.725-9.53 7.473-15.591 7.473s-11.795-2.749-15.591-7.473c-4.144-5.157-11.872-10.931-20.055-17.044-19.76-14.764-44.354-33.139-44.354-63.578zm40 0c0 10.393 14.385 21.141 28.296 31.534 3.915 2.925 7.884 5.89 11.704 8.975 3.82-3.085 7.789-6.05 11.704-8.975 13.911-10.394 28.296-21.141 28.296-31.534 0-7.677-3.552-11.904-10-11.904-7.779 0-10.962 3.311-11.999 4.805-2.867 7.592-9.751 11.881-17.922 12.059-8.021.158-14.974-5.24-18.259-12.521-.621-.978-3.373-4.343-11.82-4.343-6.448 0-10 4.228-10 11.904zm119.968 372c0 30.486-24.79 48.86-44.709 63.623-8.255 6.118-16.052 11.897-20.233 17.061-3.798 4.688-9.509 7.412-15.542 7.412s-11.744-2.724-15.542-7.412c-4.182-5.164-11.979-10.942-20.233-17.061-19.919-14.764-44.708-33.137-44.708-63.623 0-29.59 21.6-51.904 50.242-51.904 12.744 0 22.804 3.373 30.46 8.056 7.666-4.666 17.626-8.056 30.023-8.056 28.642 0 50.242 22.314 50.242 51.904zm-40 0c0-7.677-3.638-11.904-10.242-11.904-8.902 0-12.126 4.474-12.126 4.475-3.368 7.199-10.654 11.75-18.624 11.519-7.626-.193-14.447-4.703-17.634-11.574-.611-.966-3.407-4.419-12.1-4.419-6.604 0-10.242 4.228-10.242 11.904 0 10.345 14.502 21.093 28.526 31.487 4.001 2.966 8.057 5.972 11.957 9.104 3.9-3.131 7.957-6.138 11.957-9.104 14.026-10.395 28.528-21.143 28.528-31.488zm-355.676-45.377c-8.255 6.118-16.052 11.896-20.233 17.061-3.798 4.688-9.509 7.412-15.543 7.412s-11.744-2.724-15.542-7.412c-4.182-5.163-11.979-10.942-20.233-17.061-19.919-14.763-44.709-33.137-44.709-63.623 0-29.59 21.6-51.904 50.242-51.904 12.744 0 22.804 3.373 30.46 8.056 7.666-4.666 17.626-8.056 30.024-8.056 28.643 0 50.242 22.314 50.242 51.904 0 30.487-24.789 48.86-44.708 63.623zm4.708-63.623c0-7.677-3.638-11.904-10.242-11.904-7.96 0-11.21 3.352-12.269 4.862-2.878 7.566-9.742 11.828-17.894 12.007-8.003.177-14.933-5.216-18.232-12.468-.635-.99-3.45-4.401-12.089-4.401-6.604 0-10.242 4.228-10.242 11.904 0 10.345 14.502 21.093 28.527 31.487 4 2.966 8.057 5.973 11.957 9.104 3.9-3.132 7.956-6.138 11.957-9.104 14.025-10.394 28.527-21.142 28.527-31.487zm86.083 43.431c15.598 5.75 32.056 8.665 48.917 8.665 62.759 0 98.563-40.128 100.057-41.836 7.271-8.315 6.423-20.951-1.893-28.221-8.317-7.27-20.951-6.424-28.221 1.893-.246.282-25.856 28.164-69.943 28.164-12.125 0-23.929-2.085-35.083-6.196-10.36-3.818-21.862 1.483-25.683 11.849-3.82 10.363 1.485 21.862 11.849 25.682zm265.115-199.212c-10.426 3.649-15.919 15.059-12.27 25.485 8.01 22.882 12.071 46.902 12.071 71.392 0 19.817-2.746 39.507-8.162 58.521-3.025 10.623 3.134 21.688 13.757 24.714 1.831.521 3.675.77 5.488.77 8.71 0 16.721-5.734 19.226-14.526 6.431-22.579 9.691-45.955 9.691-69.479 0-29.001-4.817-57.467-14.317-84.608-3.649-10.425-15.056-15.919-25.484-12.269zm-451.479 69.481c1.338.271 2.669.4 3.983.4 9.321 0 17.665-6.553 19.582-16.042 20.253-100.221 109.293-172.962 211.716-172.962 25.288 0 34.957 2.206 37.941 3.154 10.527 3.345 21.771-2.475 25.119-13.001 3.346-10.527-2.475-21.773-13.002-25.119-10.656-3.388-27.03-5.034-50.058-5.034-59.439 0-117.354 20.831-163.079 58.657-45.112 37.319-76.31 89.305-87.844 146.382-2.188 10.826 4.815 21.377 15.642 23.565zm284.722 237.715c-16.102 3.77-32.736 5.681-49.441 5.681-45.297 0-88.651-13.862-125.377-40.089-8.989-6.421-21.48-4.338-27.898 4.652-6.42 8.989-4.337 21.479 4.652 27.898 43.549 31.101 94.941 47.539 148.623 47.539 19.771 0 39.472-2.266 58.559-6.733 10.755-2.518 17.433-13.277 14.915-24.032-2.519-10.757-13.279-17.431-24.033-14.916z"></path>
</svg>