<svg viewBox="0 0 512 512">
    <g>
        <path
            d="m479.05 223.622c13.45-11.918 21.95-29.303 21.95-48.644 0-35.843-29.159-65.004-65-65.004s-65 29.161-65 65.004c0 12.882 3.782 24.89 10.271 35.002h-5.271c-24.813 0-45-20.188-45-45.003v-3.788l35.903-35.906c28.621-28.622 28.621-75.194 0-103.816-28.621-28.624-75.19-28.622-103.81 0l-7.093 7.094-7.093-7.093c-28.62-28.622-75.189-28.624-103.81 0-28.621 28.622-28.621 75.194 0 103.816l35.903 35.905v3.788c0 24.815-20.187 45.003-45 45.003h-5.271c6.489-10.112 10.271-22.12 10.271-35.002 0-35.843-29.159-65.004-65-65.004s-65 29.161-65 65.004c0 19.342 8.5 36.727 21.95 48.645-19.302 13.584-31.95 36.016-31.95 61.362v212.014c0 8.285 6.716 15.001 15 15.001h100c8.284 0 15-6.716 15-15.001v-70.389c11.814-5.628 20-17.684 20-31.618v-95.83c22.53-2.49 43.937-10.589 62.623-23.789 16.979-11.995 30.784-27.518 40.632-45.505.577.068 1.159.113 1.746.113s1.168-.045 1.746-.113c9.848 17.988 23.653 33.51 40.632 45.505 18.685 13.2 40.092 21.298 62.623 23.789v95.83c0 13.935 8.186 25.99 20 31.618v70.389c0 8.285 6.716 15.001 15 15.001h100c8.284 0 15-6.716 15-15.001v-212.014c-.002-25.346-12.65-47.778-31.952-61.363zm-43.05-83.647c19.299 0 35 15.702 35 35.002s-15.701 35.002-35 35.002-35-15.702-35-35.002 15.701-35.002 35-35.002zm-360 0c19.299 0 35 15.702 35 35.002s-15.701 35.002-35 35.002-35-15.702-35-35.002 15.701-35.002 35-35.002zm25 342.023h-70v-52.003h70zm35-212.014c-8.284 0-15 6.716-15 15.001v110.007c0 2.757-2.243 5-5 5h-85v-115.007c0-24.815 20.187-45.003 45-45.003h60c33.447 0 61.841-22.013 71.481-52.31l22.938 22.94c-17.378 35.86-54.199 59.372-94.419 59.372zm120-76.218-89.69-89.697c-16.923-16.925-16.923-44.463 0-61.388 8.462-8.463 19.577-12.693 30.692-12.693s22.23 4.231 30.692 12.693l17.699 17.7c5.857 5.858 15.355 5.858 21.213 0l17.699-17.7c16.924-16.924 44.46-16.925 61.384 0 16.923 16.925 16.923 44.463 0 61.388zm225 288.232h-70v-52.003h70zm0-82.006h-85c-2.757 0-5-2.243-5-5v-110.007c0-8.285-6.716-15.001-15-15.001-40.22 0-77.041-23.512-94.42-59.372l22.938-22.94c9.64 30.297 38.035 52.31 71.481 52.31h60c24.813 0 45 20.188 45 45.003v115.007z"></path>
    </g>
</svg>